<!-- icon666.com - MILLIONS vector ICONS FREE --><svg version="1.1" id="Capa_1" xmlns="http://www.w3.org/2000/svg" xmlns:xlink="http://www.w3.org/1999/xlink" x="0px" y="0px" viewBox="0 0 409.605 409.605" style="enable-background:new 0 0 409.605 409.605;" xml:space="preserve"><g><g><path d="M392.182,0H128.067c-9.605,0-17.418,7.813-17.418,17.418v374.758c0,9.605,7.813,17.418,17.418,17.418h264.115 c9.605,0,17.418-7.813,17.418-17.418V17.423C409.6,7.818,401.787,0,392.182,0z M189.722,10.24h140.8v17.992h-140.8V10.24z M189.722,38.472h140.8v6.692c0,7.096-5.77,12.867-12.867,12.867H202.588c-7.096,0-12.867-5.77-12.867-12.867V38.472z M202.588,68.265h115.067c12.744,0,23.107-10.363,23.107-23.107v-6.692h30.884v329.247H148.598V38.472h30.884v6.692 C179.482,57.902,189.85,68.265,202.588,68.265z M392.182,399.36H128.067c-3.958,0-7.178-3.221-7.178-7.178V17.423 c0-3.958,3.22-7.178,7.178-7.178h51.415v17.992h-36.004c-2.826,0-5.12,2.289-5.12,5.12v339.487c0,2.831,2.294,5.12,5.12,5.12 h233.288c2.826,0,5.12-2.289,5.12-5.12V33.352c0-2.831-2.294-5.12-5.12-5.12h-36.004V10.24h51.415c3.958,0,7.178,3.22,7.178,7.178 v374.763h0.005C399.36,396.139,396.139,399.36,392.182,399.36z" fill="#000000" style="fill: rgb(181, 159, 91);"></path></g></g><g><g><path d="M328.151,103.88c-11.72,0-21.253,9.533-21.253,21.258c0,11.72,9.533,21.253,21.253,21.253 c11.725,0,21.258-9.533,21.258-21.253C349.409,113.413,339.876,103.88,328.151,103.88z M328.151,136.146 c-6.072,0-11.013-4.941-11.013-11.013s4.941-11.018,11.013-11.018c6.077,0,11.018,4.946,11.018,11.018 S334.228,136.146,328.151,136.146z" fill="#000000" style="fill: rgb(181, 159, 91);"></path></g></g><g><g><path d="M282.952,120.018H177.664c-2.831,0-5.12,2.289-5.12,5.12s2.294,5.12,5.12,5.12h105.288c2.826,0,5.12-2.289,5.12-5.12 S285.778,120.018,282.952,120.018z" fill="#000000" style="fill: rgb(181, 159, 91);"></path></g></g><g><g><path d="M328.151,162.678c-11.72,0-21.253,9.533-21.253,21.253c0,11.725,9.533,21.258,21.253,21.258 c11.725,0,21.258-9.533,21.258-21.258C349.409,172.211,339.876,162.678,328.151,162.678z M328.151,194.949 c-6.072,0-11.013-4.946-11.013-11.018s4.941-11.013,11.013-11.013c6.077,0,11.018,4.941,11.018,11.013 S334.228,194.949,328.151,194.949z" fill="#000000" style="fill: rgb(181, 159, 91);"></path></g></g><g><g><path d="M282.952,178.816H177.664c-2.826,0-5.12,2.289-5.12,5.12s2.294,5.12,5.12,5.12h105.288c2.826,0,5.12-2.289,5.12-5.12 S285.778,178.816,282.952,178.816z" fill="#000000" style="fill: rgb(181, 159, 91);"></path></g></g><g><g><path d="M328.151,221.481c-11.72,0-21.253,9.533-21.253,21.253c0,11.72,9.533,21.253,21.253,21.253 c11.725,0,21.258-9.533,21.258-21.253C349.409,231.014,339.876,221.481,328.151,221.481z M328.151,253.742 c-6.072,0-11.013-4.941-11.013-11.013s4.941-11.013,11.013-11.013c6.077,0,11.018,4.941,11.018,11.013 S334.228,253.742,328.151,253.742z" fill="#000000" style="fill: rgb(181, 159, 91);"></path></g></g><g><g><path d="M282.952,237.609H177.664c-2.826,0-5.12,2.289-5.12,5.12s2.294,5.12,5.12,5.12h105.288c2.826,0,5.12-2.289,5.12-5.12 S285.778,237.609,282.952,237.609z" fill="#000000" style="fill: rgb(181, 159, 91);"></path></g></g><g><g><path d="M328.151,280.279c-11.72,0-21.253,9.533-21.253,21.253c0,11.72,9.533,21.253,21.253,21.253 c11.725,0,21.258-9.533,21.258-21.253C349.409,289.812,339.876,280.279,328.151,280.279z M328.151,312.54 c-6.072,0-11.013-4.941-11.013-11.013s4.941-11.013,11.013-11.013c6.077,0,11.018,4.941,11.018,11.013 S334.228,312.54,328.151,312.54z" fill="#000000" style="fill: rgb(181, 159, 91);"></path></g></g><g><g><path d="M282.952,296.412H177.664c-2.826,0-5.12,2.289-5.12,5.12s2.294,5.12,5.12,5.12h105.288c2.826,0,5.12-2.289,5.12-5.12 S285.778,296.412,282.952,296.412z" fill="#000000" style="fill: rgb(181, 159, 91);"></path></g></g><g><g><path d="M62.228,0.005H22.523c-12.416,0-22.518,10.102-22.518,22.513v303.985c0,0.676,0.133,1.347,0.394,1.971l31.222,74.988 c0.169,0.399,0.384,0.773,0.645,1.121c2.417,3.19,6.098,5.018,10.102,5.023c4.004,0,7.685-1.828,10.107-5.018 c0.261-0.348,0.481-0.727,0.645-1.126l31.227-74.988c0.261-0.625,0.394-1.295,0.394-1.971V22.518 C84.741,10.102,74.639,0.005,62.228,0.005z M10.24,22.513c0-6.769,5.509-12.273,12.278-12.273h39.706 c6.769,0,12.273,5.504,12.273,12.273v18.232H10.24V22.513z M10.24,73.6h13.061v245.545H10.24V73.6z M43.986,398.756 c-0.579,0.522-1.239,0.609-1.618,0.609c-0.379-0.005-1.039-0.092-1.613-0.609l-6.856-16.461h16.942L43.986,398.756z M55.107,372.055H29.64l-17.766-42.67h61.005L55.107,372.055z M33.541,319.145V73.6H51.2v245.545H33.541z M74.501,319.145H61.44 V73.6h13.061V319.145z M74.501,63.36H10.24V50.985h64.261V63.36z" fill="#000000" style="fill: rgb(181, 159, 91);"></path></g></g></svg>